# Blender 3.3.1
# www.blender.org
mtllib gakubuti.mtl
o Cube
v -0.260330 -0.002257 -4.088125
v -0.260330 -0.002257 4.088125
v -0.260330 5.225312 -4.088125
v -0.260330 5.225312 4.088125
v 0.137613 -0.002257 4.088125
v 0.137613 5.225312 4.088125
v 0.137613 -0.002257 -4.088125
v 0.137613 5.225312 -4.088125
v 0.137613 0.271436 -3.880358
v 0.056477 4.951618 3.880358
v 0.137613 0.271436 3.880358
v 0.056477 4.807531 3.718312
v 0.056477 0.415523 3.718312
v 0.137613 4.951618 -3.880358
v 0.056477 0.271436 3.880358
v 0.137613 4.951618 3.880358
v -0.063925 0.271436 3.880358
v -0.063925 0.415523 3.718312
v -0.063925 4.807531 3.718312
v -0.063925 4.951618 3.880358
v -0.063925 0.271436 -3.880358
v -0.063925 0.415523 -3.718312
v -0.063925 4.807531 -3.718312
v -0.063925 4.951618 -3.880358
v 0.056477 0.271436 -3.880358
v 0.056477 0.415523 -3.718312
v 0.056477 4.807531 -3.718312
v 0.056477 4.951618 -3.880358
vn 1.0000 -0.0000 -0.0000
vn -0.0000 -0.0000 1.0000
vn -0.0000 1.0000 -0.0000
vn -1.0000 -0.0000 -0.0000
vn -0.0000 -1.0000 -0.0000
vn -0.0000 -0.0000 -1.0000
vt 0.899740 1.000000
vt 0.899740 -0.193208
vt 0.899740 -0.193208
vt 0.899740 0.000000
vt 0.100260 -0.193208
vt 0.899740 -0.193208
vt 0.100260 1.000000
vt 0.100260 -0.193208
vt 0.100260 -0.193208
vt 0.100260 0.000000
vt 0.899740 0.806792
vt 0.100260 0.806792
vt 0.899740 0.000000
vt 0.100260 0.806792
vt 0.100260 0.000000
vt 0.899740 0.806792
vt 0.899740 1.000000
vt 0.899740 0.806792
vt 0.100260 0.806792
vt 0.100260 1.000000
vt 0.879424 0.806792
vt 0.857882 0.806792
vt 0.857882 0.974589
vt 0.120576 0.602904
vt 0.142118 0.025411
vt 0.142118 0.602904
vt 0.120576 0.806792
vt 0.857882 0.806792
vt 0.857882 0.025411
vt 0.164154 0.045230
vt 0.136421 0.602904
vt 0.164154 0.602904
vt 0.835846 0.045230
vt 0.136421 0.602904
vt 0.835846 0.602904
vt 0.142118 0.974589
vt 0.879424 0.806792
vt 0.142118 0.806792
vt 0.120576 0.602904
vt 0.857882 0.025411
vt 0.857882 0.602904
vt 0.142118 0.025411
vt 0.142118 0.806792
vt 0.120576 0.806792
vt 0.120576 0.300343
vt 0.857882 0.300343
vt 0.004459 0.000000
vt 0.136421 0.300343
vt 0.835846 0.300343
vt 0.004459 1.000000
vt 0.136421 0.300343
vt 0.164154 0.300343
vt 0.120576 0.300343
vt 0.142118 0.300343
vt 0.857882 0.300343
vt 0.879424 0.300343
vt 0.986038 0.000000
vt 0.835846 0.300343
vt 0.863579 0.300343
vt 0.986038 1.000000
vt 0.164154 0.300343
vt 0.863579 0.300343
vt 0.879424 0.300343
vt 0.142118 0.300343
vt 0.857882 0.602904
vt 0.879424 0.602904
vt 0.857882 0.974589
vt 0.835846 0.602904
vt 0.835846 0.954770
vt 0.863579 0.602904
vt 0.164154 0.602904
vt 0.164154 0.954770
vt 0.863579 0.602904
vt 0.879424 0.602904
vt 0.142118 0.602904
vt 0.142118 0.974589
s 0
usemtl Material
f 22/57/1 23/60/1 19/50/1 18/47/1
usemtl マテリアル
f 14/36/1 9/23/1 7/17/1 8/20/1
f 2/3/2 5/11/2 6/14/2 4/9/2
f 4/9/3 6/14/3 8/18/3 3/6/3
f 3/7/4 1/1/4 2/4/4 4/10/4
f 1/2/5 7/16/5 5/12/5 2/5/5
f 3/8/6 8/19/6 7/16/6 1/2/6
f 16/42/1 14/36/1 8/20/1 6/15/1
f 13/33/1 12/30/1 10/25/1 15/40/1
f 11/29/1 16/42/1 6/15/1 5/13/1
f 11/27/3 9/21/3 21/56/3 17/45/3
f 16/43/6 11/28/6 17/46/6 20/54/6
f 14/37/5 16/44/5 20/53/5 24/63/5
f 9/22/2 14/38/2 24/64/2 21/55/2
f 9/23/1 11/29/1 5/13/1 7/17/1
f 24/63/3 20/53/3 10/24/3 28/74/3
f 21/55/6 24/64/6 28/75/6 25/65/6
f 17/45/5 21/56/5 25/66/5 15/39/5
f 23/61/2 22/58/2 26/68/2 27/71/2
f 26/69/1 13/33/1 15/40/1 25/67/1
f 12/30/1 27/72/1 28/76/1 10/25/1
f 27/72/1 26/69/1 25/67/1 28/76/1
f 19/51/5 23/62/5 27/73/5 12/31/5
f 22/59/3 18/48/3 13/34/3 26/70/3
f 20/54/2 17/46/2 15/41/2 10/26/2
f 18/49/6 19/52/6 12/32/6 13/35/6
